<svg xmlns="http://www.w3.org/2000/svg" viewBox="0 0 32 32" width="32" height="32" role="img">
  <title>NutriLens favicon</title>
  <circle cx="16" cy="16" r="15.5" fill="#EFF7E8"/>
  <path d="M16,16 L24.2,8.3 A11.7,11.7 0 0,1 24.2,23.7 Z" fill="#2B5726"/>
  <path d="M16,16 L24.2,8.3 A11.7,11.7 0 0,1 24.2,23.7 Z" fill="#2B5726" transform="rotate(120 16 16)"/>
  <path d="M16,16 L24.2,8.3 A11.7,11.7 0 0,1 24.2,23.7 Z" fill="#2B5726" transform="rotate(240 16 16)"/>
  <circle cx="16" cy="16" r="13.8" fill="none" stroke="#2B5726" stroke-width="1.1"/>
  <circle cx="16" cy="16" r="5.3" fill="white"/>
  <path d="M16,12.8 C17.1,12.8 18.6,13.8 18.6,15.5 C18.6,17.2 17.1,18.1 16,18.1 C14.9,18.1 13.4,17.2 13.4,15.5 C13.4,13.8 14.9,12.8 16,12.8Z" fill="#DEE660"/>
  <line x1="16" y1="12.8" x2="16" y2="18.1" stroke="#2B5726" stroke-width="0.5" stroke-linecap="round"/>
  <line x1="16" y1="18.1" x2="16" y2="19.8" stroke="#2B5726" stroke-width="0.9" stroke-linecap="round"/>
</svg>
